<svg xmlns="http://www.w3.org/2000/svg" viewBox="0 0 53 53" width="512" height="512"><path d="M18.627 41.525l-7.893 4.305c-.463.253-.879.563-1.266.902a26.33 26.33 0 0 0 17.032 6.22 26.347 26.347 0 0 0 16.934-6.133 7.002 7.002 0 0 0-1.392-.932l-8.452-4.225a3.223 3.223 0 0 1-1.782-2.883v-3.316c.238-.27.51-.618.8-1.028a19.447 19.447 0 0 0 2.627-5.295c1.084-.334 1.883-1.335 1.883-2.525v-3.54c0-.778-.346-1.474-.885-1.961v-5.117s1.052-7.963-9.732-7.963-9.732 7.963-9.732 7.963v5.117a2.639 2.639 0 0 0-.885 1.961v3.54c0 .932.49 1.753 1.224 2.227.884 3.85 3.2 6.62 3.2 6.62v3.235a3.226 3.226 0 0 1-1.68 2.828z" data-original="#E7ECED" fill="#e7eced"/><path d="M26.952.052C12.346-.198.302 11.442.052 26.048c-.142 8.282 3.55 15.726 9.427 20.676a7.029 7.029 0 0 1 1.254-.893l7.893-4.305a3.224 3.224 0 0 0 1.68-2.83v-3.234s-2.317-2.771-3.2-6.621a2.655 2.655 0 0 1-1.224-2.227v-3.54c0-.778.347-1.474.885-1.961v-5.117s-1.052-7.963 9.732-7.963 9.732 7.963 9.732 7.963v5.117c.54.487.885 1.183.885 1.961v3.54c0 1.19-.799 2.19-1.883 2.525a19.447 19.447 0 0 1-2.627 5.295c-.29.41-.562.757-.8 1.028v3.316c0 1.22.69 2.338 1.782 2.883l8.452 4.225c.507.254.965.574 1.388.93 5.7-4.753 9.382-11.86 9.518-19.864C53.198 12.346 41.56.302 26.952.052z" data-original="#556080" class="active-path" data-old_color="#556080" fill="#0084ff"/></svg>
